<?xml version="1.0" encoding="UTF-8"?>
<svg width="85px" height="21px" viewBox="0 0 85 21" version="1.1" xmlns="http://www.w3.org/2000/svg" xmlns:xlink="http://www.w3.org/1999/xlink">
    <!-- Generator: Sketch 59.1 (86144) - https://sketch.com -->
    <title>watermark_final</title>
    <desc>Created with Sketch.</desc>
    <defs>
        <linearGradient x1="49.9991154%" y1="0.969097356%" x2="49.9991154%" y2="94.3730304%" id="linearGradient-1">
            <stop stop-color="#FFFFFF" offset="0%"></stop>
            <stop stop-color="#CACACA" offset="100%"></stop>
        </linearGradient>
    </defs>
    <g id="Page-1" stroke="none" stroke-width="1" fill="none" fill-rule="evenodd">
        <g id="iPhone-11-Pro" transform="translate(-8.000000, -749.000000)">
            <g id="watermark_final" transform="translate(8.000000, 749.000000)">
                <g id="logo" transform="translate(0.000300, 0.000000)">
                    <path d="M19.601,11.917 C18.883,16.322 15.053,19.684 10.437,19.684 C5.309,19.684 1.152,15.535 1.152,10.417 C1.152,5.3 5.309,1.151 10.437,1.151 C12.851,1.151 15.094,2.1 16.701,3.578 C16.897,3.791 16.987,4.091 16.987,4.419 C16.987,5.104 16.434,5.659 15.753,5.659 C15.48,5.659 15.278,5.685 15,5.433 C13.861,4.375 12.201,3.676 10.448,3.676 C6.711,3.676 3.682,6.699 3.682,10.429 C3.682,14.158 6.711,17.182 10.448,17.182 C13.367,17.182 15.854,15.337 16.803,12.752 C16.874,12.549 16.944,12.238 16.978,12.092 C17.332,11.984 19.261,11.407 19.684,11.284 C19.684,11.51 19.636,11.737 19.601,11.917 L19.601,11.917 Z M9.422,13.46 C9.307,13.495 9.185,13.429 9.151,13.313 C9.133,13.254 9.142,13.189 9.173,13.136 L10.99,10.105 L9.173,7.073 C9.111,6.97 9.144,6.834 9.247,6.772 C9.299,6.74 9.363,6.731 9.422,6.75 L19.468,9.811 C19.629,9.859 19.72,10.031 19.671,10.193 C19.642,10.292 19.566,10.369 19.468,10.399 L9.422,13.46 Z M19.827,8.717 L9.757,5.647 C9.628,5.608 9.494,5.588 9.359,5.588 C9.107,5.588 8.861,5.658 8.645,5.789 C8.006,6.181 7.8,7.022 8.185,7.665 L9.647,10.105 L8.185,12.544 C7.988,12.874 7.937,13.274 8.047,13.643 C8.219,14.219 8.759,14.621 9.359,14.621 C9.494,14.621 9.628,14.601 9.758,14.562 L15.532,12.802 C14.601,14.763 12.622,16.03 10.448,16.03 C7.352,16.03 4.833,13.517 4.833,10.429 C4.833,7.34 7.352,4.828 10.448,4.828 C11.831,4.828 13.24,5.37 14.217,6.277 C14.739,6.751 15.24,6.812 15.619,6.812 L15.692,6.812 L15.754,6.811 C17.069,6.811 18.139,5.738 18.139,4.419 C18.139,3.776 17.934,3.215 17.547,2.796 L17.54,2.789 L17.508,2.755 C15.594,0.995 13.026,5.32907052e-15 10.436,5.32907052e-15 C4.682,5.32907052e-15 8.8817842e-15,4.673 8.8817842e-15,10.417 C8.8817842e-15,16.162 4.682,20.836 10.436,20.836 C15.62,20.836 19.856,17.246 20.737,12.104 L20.747,12.053 C20.907,11.161 21.239,9.306 19.827,8.717 L19.827,8.717 Z" id="Fill-5" fill="#000000" opacity="0.400000006"></path>
                    <g id="symbol" opacity="0.800000012" transform="translate(1.152200, 1.151400)">
                        <path d="M15.651,11.601 C14.702,14.185 12.214,16.03 9.296,16.03 C5.559,16.03 2.529,13.007 2.529,9.277 C2.529,5.548 5.559,2.525 9.296,2.525 C11.049,2.525 12.709,3.223 13.848,4.282 C14.126,4.534 14.328,4.508 14.601,4.508 C15.282,4.508 15.835,3.953 15.835,3.268 C15.835,2.94 15.745,2.639 15.549,2.427 C13.942,0.948 11.699,-4.97379915e-14 9.284,-4.97379915e-14 C4.156,-4.97379915e-14 1.95399252e-14,4.148 1.95399252e-14,9.266 C1.95399252e-14,14.384 4.156,18.533 9.284,18.533 C13.901,18.533 17.731,15.17 18.449,10.766 C18.484,10.586 18.532,10.358 18.532,10.132 C18.109,10.256 16.18,10.832 15.826,10.94 C15.792,11.086 15.722,11.398 15.651,11.601" id="Fill-1" fill="#FFFFFF"></path>
                        <path d="M8.0943,5.6205 C7.9913,5.6825 7.9593,5.8185 8.0213,5.9215 L9.8373,8.9535 L8.0213,11.9845 C7.9893,12.0375 7.9813,12.1025 7.9993,12.1625 C8.0333,12.2775 8.1553,12.3435 8.2693,12.3085 L18.3163,9.2475 C18.4133,9.2175 18.4903,9.1405 18.5193,9.0415 C18.5683,8.8795 18.4763,8.7075 18.3163,8.6595 L8.2693,5.5985 C8.2103,5.5795 8.1473,5.5885 8.0943,5.6205" id="Fill-3" fill="#FFFFFF"></path>
                        <path d="M9.8375,8.9535 L18.5325,8.9345 C18.5325,8.8175 18.4135,8.6815 18.3425,8.6595 L8.2955,5.5985 C8.2365,5.5805 8.1735,5.5885 8.1205,5.6205 C8.0185,5.6835 7.9855,5.8185 8.0475,5.9215 L9.8375,8.9535 Z" id="Fill-8" fill="url(#linearGradient-1)" opacity="0.5"></path>
                    </g>
                </g>
                <g id="goong.io" transform="translate(23.000000, 4.000000)">
                    <g id="boder" opacity="0.400000006" transform="translate(0.000000, 0.587100)" fill="#000000">
                        <path d="M40.4368,8.0016 C40.1378,8.0016 39.6318,7.8466 39.6318,7.2656 C39.6318,6.5556 40.2488,6.5006 40.4368,6.5006 C40.8578,6.5006 41.3108,6.7316 41.3108,7.2376 C41.3108,7.7626 40.8578,8.0016 40.4368,8.0016 M40.4368,5.2506 C39.2858,5.2506 38.3818,6.0456 38.3818,7.2376 L38.3818,7.2656 C38.3818,8.4426 39.2998,9.2516 40.4368,9.2516 C41.5878,9.2516 42.5608,8.4426 42.5608,7.2656 L42.5608,7.2376 C42.5608,6.0596 41.5878,5.2506 40.4368,5.2506" id="Fill-28"></path>
                        <path d="M15.2868,8.7009 C14.6648,8.7009 14.3298,8.1519 14.3298,7.6359 C14.3298,7.1139 14.5748,6.5549 15.2588,6.5549 C15.9258,6.5549 16.2288,7.1159 16.2288,7.6359 C16.2288,8.1509 15.9818,8.7009 15.2868,8.7009 M15.2588,5.3049 C13.9298,5.3049 13.0798,6.3469 13.0798,7.6069 L13.0798,7.6359 C13.0798,8.8949 13.9988,9.9509 15.2868,9.9509 C16.6298,9.9509 17.4788,8.9089 17.4788,7.6629 L17.4788,7.6359 C17.4788,6.3609 16.5608,5.3049 15.2588,5.3049" id="Fill-30"></path>
                        <path d="M23.883,8.7009 C23.261,8.7009 22.926,8.1519 22.926,7.6359 C22.926,7.1139 23.171,6.5549 23.855,6.5549 C24.522,6.5549 24.825,7.1159 24.825,7.6359 C24.825,8.1509 24.578,8.7009 23.883,8.7009 M23.855,5.3049 C22.526,5.3049 21.676,6.3469 21.676,7.6069 L21.676,7.6359 C21.676,8.8949 22.595,9.9509 23.883,9.9509 C25.226,9.9509 26.075,8.9089 26.075,7.6629 L26.075,7.6359 C26.075,6.3609 25.157,5.3049 23.855,5.3049" id="Fill-32"></path>
                        <path d="M56.1418,8.7009 C55.5198,8.7009 55.1848,8.1519 55.1848,7.6359 C55.1848,7.1139 55.4298,6.5549 56.1138,6.5549 C56.7808,6.5549 57.0838,7.1159 57.0838,7.6359 C57.0838,8.1509 56.8368,8.7009 56.1418,8.7009 M56.1138,5.3049 C54.7848,5.3049 53.9348,6.3469 53.9348,7.6069 L53.9348,7.6359 C53.9348,8.8949 54.8538,9.9509 56.1418,9.9509 C57.4848,9.9509 58.3338,8.9089 58.3338,7.6629 L58.3338,7.6359 C58.3338,6.3609 57.4158,5.3049 56.1138,5.3049" id="Fill-34"></path>
                        <path d="M56.114,11.403 C53.908,11.403 52.278,9.717 52.278,7.663 L52.278,7.635 C52.278,5.566 53.922,3.853 56.142,3.853 C58.362,3.853 59.992,5.539 59.992,7.607 L59.992,7.635 C59.992,9.69 58.348,11.403 56.114,11.403 L56.114,11.403 Z M51.029,2.14 C51.029,2.633 50.617,2.963 50.083,2.963 C49.549,2.963 49.138,2.633 49.138,2.14 L49.138,2.058 C49.138,1.565 49.549,1.25 50.083,1.25 C50.617,1.25 51.029,1.565 51.029,2.058 L51.029,2.14 Z M50.919,10.485 C50.919,10.951 50.549,11.307 50.083,11.307 C49.631,11.307 49.261,10.951 49.261,10.485 L49.261,4.757 C49.261,4.292 49.617,3.922 50.083,3.922 C50.549,3.922 50.919,4.292 50.919,4.757 L50.919,10.485 Z M47.656,10.362 C47.656,10.896 47.245,11.307 46.697,11.307 C46.135,11.307 45.724,10.896 45.724,10.362 L45.724,10.224 C45.724,9.69 46.135,9.279 46.697,9.279 C47.245,9.279 47.656,9.69 47.656,10.224 L47.656,10.362 Z M44.212,9.758 C44.212,10.978 43.897,11.882 43.294,12.486 C42.636,13.143 41.622,13.459 40.321,13.459 C39.307,13.459 38.403,13.239 37.526,12.814 C37.238,12.705 37.06,12.472 37.06,12.157 C37.06,11.787 37.375,11.471 37.759,11.471 C37.882,11.471 37.978,11.499 38.06,11.54 C38.718,11.91 39.444,12.116 40.28,12.116 C41.76,12.116 42.568,11.348 42.568,9.896 L42.568,9.334 C41.965,10.115 41.212,10.663 40.019,10.663 C38.32,10.663 36.731,9.403 36.731,7.279 L36.731,7.252 C36.731,5.114 38.334,3.853 40.019,3.853 C41.239,3.853 41.992,4.415 42.554,5.087 L42.554,4.744 C42.554,4.292 42.924,3.922 43.376,3.922 C43.843,3.922 44.212,4.292 44.212,4.757 L44.212,9.758 Z M35.507,10.485 C35.507,10.951 35.151,11.307 34.685,11.307 C34.219,11.307 33.849,10.951 33.849,10.485 L33.849,7.128 C33.849,6.005 33.287,5.36 32.301,5.36 C31.342,5.36 30.67,6.032 30.67,7.155 L30.67,10.485 C30.67,10.951 30.301,11.307 29.835,11.307 C29.382,11.307 29.012,10.951 29.012,10.485 L29.012,4.757 C29.012,4.292 29.368,3.922 29.835,3.922 C30.301,3.922 30.67,4.292 30.67,4.757 L30.67,5.114 C31.136,4.442 31.807,3.853 32.931,3.853 C34.562,3.853 35.507,4.949 35.507,6.621 L35.507,10.485 Z M27.733,7.635 C27.733,9.69 26.089,11.403 23.855,11.403 C21.649,11.403 20.019,9.717 20.019,7.663 L20.019,7.635 C20.019,5.566 21.663,3.853 23.883,3.853 C26.103,3.853 27.733,5.539 27.733,7.607 L27.733,7.635 Z M19.137,7.635 C19.137,9.69 17.493,11.403 15.259,11.403 C13.053,11.403 11.423,9.717 11.423,7.663 L11.423,7.635 C11.423,5.566 13.067,3.853 15.287,3.853 C17.507,3.853 19.137,5.539 19.137,7.607 L19.137,7.635 Z M6.645,8.596 C6.524,8.611 6.402,8.619 6.279,8.619 C5.038,8.619 4.268,7.785 4.268,6.443 C4.268,5.251 5.102,4.281 6.128,4.281 C6.735,4.281 7.124,4.412 7.481,4.632 L6.704,4.632 C5.599,4.632 4.7,5.524 4.7,6.621 C4.7,7.691 5.567,8.566 6.645,8.596 L6.645,8.596 Z M10.225,9.293 C10.225,9.772 10.033,10.115 9.636,10.362 C8.814,10.91 7.663,11.403 6.224,11.403 C3.223,11.403 1.25,9.265 1.25,6.47 L1.25,6.443 C1.25,3.757 3.305,1.483 6.197,1.483 C7.635,1.483 8.594,1.825 9.471,2.456 C9.636,2.579 9.814,2.812 9.814,3.14 C9.814,3.592 9.444,3.976 8.978,3.976 C8.759,3.976 8.594,3.881 8.458,3.785 C7.841,3.333 7.17,3.031 6.128,3.031 C4.361,3.031 3.018,4.58 3.018,6.416 L3.018,6.443 C3.018,8.416 4.32,9.869 6.279,9.869 C7.183,9.869 8.006,9.581 8.594,9.142 L8.594,7.347 L6.704,7.347 C6.293,7.347 5.95,7.032 5.95,6.621 C5.95,6.21 6.293,5.882 6.704,5.882 L9.376,5.882 C9.855,5.882 10.225,6.251 10.225,6.73 L10.225,9.293 Z M56.142,2.603 C54.547,2.603 53.106,3.295 52.152,4.486 C52.105,4.132 51.969,3.797 51.755,3.51 C52.094,3.139 52.279,2.661 52.279,2.14 L52.279,2.058 C52.279,0.885 51.335,3.01980663e-14 50.083,3.01980663e-14 C48.832,3.01980663e-14 47.888,0.885 47.888,2.058 L47.888,2.14 C47.888,2.662 48.072,3.14 48.412,3.511 C48.152,3.867 48.011,4.301 48.011,4.757 L48.011,8.455 C47.637,8.18 47.181,8.029 46.697,8.029 C46.245,8.029 45.822,8.157 45.462,8.396 L45.462,4.757 C45.462,3.608 44.527,2.672 43.376,2.672 C42.913,2.672 42.469,2.825 42.107,3.107 C41.485,2.773 40.783,2.603 40.019,2.603 C38.531,2.603 37.118,3.358 36.292,4.56 C35.66,3.325 34.437,2.603 32.931,2.603 C32.248,2.603 31.62,2.761 31.062,3.072 C30.707,2.813 30.277,2.672 29.835,2.672 C28.798,2.672 27.962,3.401 27.793,4.389 C26.84,3.259 25.426,2.603 23.883,2.603 C22.116,2.603 20.506,3.481 19.581,4.921 C18.66,3.481 17.053,2.603 15.287,2.603 C13.378,2.603 11.695,3.587 10.808,5.194 C10.637,5.034 10.442,4.904 10.229,4.811 C10.746,4.425 11.064,3.813 11.064,3.14 C11.064,2.48 10.749,1.85 10.22,1.455 C9.045,0.609 7.805,0.233 6.197,0.233 C2.722,0.233 -2.13162821e-14,2.961 -2.13162821e-14,6.443 C-2.13162821e-14,10.041 2.617,12.653 6.224,12.653 C7.681,12.653 9.101,12.22 10.329,11.403 C10.669,11.192 10.938,10.913 11.132,10.573 C12.074,11.884 13.585,12.653 15.259,12.653 C17.03,12.653 18.645,11.778 19.573,10.342 C20.491,11.778 22.094,12.653 23.855,12.653 C25.41,12.653 26.836,11.992 27.796,10.856 C27.971,11.822 28.819,12.557 29.835,12.557 C31.004,12.557 31.92,11.647 31.92,10.485 L31.92,7.155 C31.92,6.61 32.149,6.61 32.301,6.61 C32.493,6.61 32.599,6.61 32.599,7.128 L32.599,10.485 C32.599,11.647 33.515,12.557 34.685,12.557 C35.096,12.557 35.484,12.441 35.811,12.229 C35.838,13.003 36.3,13.662 37.029,13.962 C38.073,14.463 39.155,14.709 40.321,14.709 C41.991,14.709 43.289,14.258 44.177,13.37 C44.571,12.977 44.878,12.48 45.094,11.887 C45.506,12.313 46.076,12.557 46.697,12.557 C47.386,12.557 48.019,12.246 48.43,11.725 C48.817,12.24 49.429,12.557 50.083,12.557 C51.15,12.557 52.006,11.8 52.148,10.785 C53.096,11.967 54.529,12.653 56.114,12.653 C58.989,12.653 61.242,10.449 61.242,7.635 C61.242,4.814 59.002,2.603 56.142,2.603 L56.142,2.603 Z" id="Fill-36"></path>
                    </g>
                    <g id="text" opacity="0.800000012" transform="translate(1.250200, 1.836600)" fill="#FFFFFF">
                        <path d="M1.0658141e-14,5.2209 L1.0658141e-14,5.1939 C1.0658141e-14,2.5079 2.055,0.2339 4.946,0.2339 C6.385,0.2339 7.344,0.5749 8.221,1.2059 C8.386,1.3289 8.564,1.5629 8.564,1.8909 C8.564,2.3429 8.194,2.7269 7.728,2.7269 C7.509,2.7269 7.344,2.6309 7.208,2.5349 C6.591,2.0829 5.919,1.7819 4.878,1.7819 C3.11,1.7819 1.768,3.3299 1.768,5.1659 L1.768,5.1939 C1.768,7.1659 3.069,8.6189 5.029,8.6189 C5.933,8.6189 6.755,8.3309 7.344,7.8929 L7.344,6.0979 L5.454,6.0979 C5.042,6.0979 4.7,5.7829 4.7,5.3709 C4.7,4.9599 5.042,4.6319 5.454,4.6319 L8.125,4.6319 C8.605,4.6319 8.975,5.0009 8.975,5.4809 L8.975,8.0429 C8.975,8.5229 8.783,8.8659 8.386,9.1129 C7.563,9.6599 6.413,10.1539 4.974,10.1539 C1.973,10.1539 1.0658141e-14,8.0159 1.0658141e-14,5.2209" id="Fill-11"></path>
                        <path d="M16.229,6.4133 L16.229,6.3863 C16.229,5.1113 15.311,4.0563 14.009,4.0563 C12.68,4.0563 11.831,5.0983 11.831,6.3573 L11.831,6.3863 C11.831,7.6453 12.749,8.7013 14.037,8.7013 C15.379,8.7013 16.229,7.6593 16.229,6.4133 M10.172,6.4133 L10.172,6.3863 C10.172,4.3163 11.816,2.6033 14.037,2.6033 C16.256,2.6033 17.887,4.2893 17.887,6.3573 L17.887,6.3863 C17.887,8.4403 16.243,10.1533 14.009,10.1533 C11.803,10.1533 10.172,8.4683 10.172,6.4133" id="Fill-13"></path>
                        <path d="M24.8252,6.4133 L24.8252,6.3863 C24.8252,5.1113 23.9072,4.0563 22.6052,4.0563 C21.2762,4.0563 20.4262,5.0983 20.4262,6.3573 L20.4262,6.3863 C20.4262,7.6453 21.3452,8.7013 22.6332,8.7013 C23.9752,8.7013 24.8252,7.6593 24.8252,6.4133 M18.7682,6.4133 L18.7682,6.3863 C18.7682,4.3163 20.4122,2.6033 22.6332,2.6033 C24.8522,2.6033 26.4832,4.2893 26.4832,6.3573 L26.4832,6.3863 C26.4832,8.4403 24.8392,10.1533 22.6052,10.1533 C20.3992,10.1533 18.7682,8.4683 18.7682,6.4133" id="Fill-15"></path>
                        <path d="M27.7622,3.508 C27.7622,3.042 28.1182,2.672 28.5842,2.672 C29.0502,2.672 29.4202,3.042 29.4202,3.508 L29.4202,3.864 C29.8862,3.193 30.5572,2.604 31.6812,2.604 C33.3112,2.604 34.2572,3.699 34.2572,5.371 L34.2572,9.236 C34.2572,9.701 33.9012,10.058 33.4352,10.058 C32.9692,10.058 32.5992,9.701 32.5992,9.236 L32.5992,5.878 C32.5992,4.755 32.0372,4.111 31.0512,4.111 C30.0912,4.111 29.4202,4.782 29.4202,5.905 L29.4202,9.236 C29.4202,9.701 29.0502,10.058 28.5842,10.058 C28.1322,10.058 27.7622,9.701 27.7622,9.236 L27.7622,3.508 Z" id="Fill-17"></path>
                        <path d="M41.3316,6.0158 L41.3316,5.9888 C41.3316,4.8098 40.3586,4.0008 39.2076,4.0008 C38.0566,4.0008 37.1526,4.7958 37.1526,5.9888 L37.1526,6.0158 C37.1526,7.1938 38.0706,8.0018 39.2076,8.0018 C40.3586,8.0018 41.3316,7.1938 41.3316,6.0158 M36.2756,11.5648 C35.9876,11.4548 35.8096,11.2228 35.8096,10.9078 C35.8096,10.5368 36.1246,10.2218 36.5086,10.2218 C36.6316,10.2218 36.7276,10.2488 36.8096,10.2898 C37.4676,10.6608 38.1936,10.8668 39.0296,10.8668 C40.5096,10.8668 41.3176,10.0988 41.3176,8.6468 L41.3176,8.0838 C40.7146,8.8658 39.9616,9.4128 38.7686,9.4128 C37.0696,9.4128 35.4806,8.1538 35.4806,6.0298 L35.4806,6.0018 C35.4806,3.8648 37.0836,2.6038 38.7686,2.6038 C39.9886,2.6038 40.7426,3.1648 41.3046,3.8368 L41.3046,3.4948 C41.3046,3.0418 41.6736,2.6718 42.1256,2.6718 C42.5926,2.6718 42.9616,3.0418 42.9616,3.5078 L42.9616,8.5088 C42.9616,9.7288 42.6466,10.6328 42.0436,11.2368 C41.3866,11.8938 40.3726,12.2088 39.0706,12.2088 C38.0566,12.2088 37.1526,11.9898 36.2756,11.5648" id="Fill-19"></path>
                        <path d="M45.4468,8.0295 C45.9948,8.0295 46.4058,8.4405 46.4058,8.9745 L46.4058,9.1125 C46.4058,9.6465 45.9948,10.0575 45.4468,10.0575 C44.8848,10.0575 44.4738,9.6465 44.4738,9.1125 L44.4738,8.9745 C44.4738,8.4405 44.8848,8.0295 45.4468,8.0295" id="Fill-21"></path>
                        <path d="M48.0108,3.508 C48.0108,3.042 48.3668,2.672 48.8328,2.672 C49.2988,2.672 49.6688,3.042 49.6688,3.508 L49.6688,9.236 C49.6688,9.701 49.2988,10.058 48.8328,10.058 C48.3808,10.058 48.0108,9.701 48.0108,9.236 L48.0108,3.508 Z M47.8878,0.809 C47.8878,0.316 48.2988,-3.55271368e-15 48.8328,-3.55271368e-15 C49.3668,-3.55271368e-15 49.7788,0.316 49.7788,0.809 L49.7788,0.891 C49.7788,1.384 49.3668,1.713 48.8328,1.713 C48.2988,1.713 47.8878,1.384 47.8878,0.891 L47.8878,0.809 Z" id="Fill-23"></path>
                        <path d="M57.084,6.4133 L57.084,6.3863 C57.084,5.1113 56.166,4.0563 54.864,4.0563 C53.535,4.0563 52.685,5.0983 52.685,6.3573 L52.685,6.3863 C52.685,7.6453 53.604,8.7013 54.892,8.7013 C56.234,8.7013 57.084,7.6593 57.084,6.4133 M51.027,6.4133 L51.027,6.3863 C51.027,4.3163 52.671,2.6033 54.892,2.6033 C57.111,2.6033 58.742,4.2893 58.742,6.3573 L58.742,6.3863 C58.742,8.4403 57.098,10.1533 54.864,10.1533 C52.658,10.1533 51.027,8.4683 51.027,6.4133" id="Fill-25"></path>
                    </g>
                </g>
            </g>
        </g>
    </g>
</svg>